<svg xmlns="http://www.w3.org/2000/svg" fill="none" viewBox="0 0 63 27"><path fill="#111" d="M.564453 21H13.2485v-3.556H5.10045V.980011H.564453V21ZM21.587 18.228c-2.296 0-3.584-1.68-3.584-4.48v-.224c0-2.8 1.344-4.42399 3.584-4.42399 2.268 0 3.584 1.67999 3.584 4.47999v.196c0 2.772-1.316 4.452-3.584 4.452Zm-.028 3.08c4.396 0 7.728-2.94 7.728-7.56v-.224c0-4.56399-3.304-7.50399-7.7-7.50399-4.396 0-7.728 2.996-7.728 7.58799v.224c0 4.564 3.332 7.476 7.7 7.476Zm16.1059 5.096c4.816 0 7.7-2.212 7.728-6.552V6.35601h-4.032v2.184c-.84-1.484-2.268-2.52-4.648-2.52-3.64 0-6.44 2.94-6.44 7.13999v.196c0 4.34 2.828 7 6.384 7 2.156 0 3.892-1.288 4.704-2.716v2.212c0 2.296-1.232 3.584-3.696 3.584-2.072 0-2.996-.84-3.248-2.128h-4.032c.392 3.024 2.548 5.096 7.28 5.096Zm.196-9.1c-2.016 0-3.444-1.512-3.444-3.948v-.224c0-2.408 1.26-4.03199 3.528-4.03199 2.212 0 3.528 1.51199 3.528 4.00399v.196c0 2.492-1.484 4.004-3.612 4.004Zm17.1008.924c-2.296 0-3.584-1.68-3.584-4.48v-.224c0-2.8 1.344-4.42399 3.584-4.42399 2.268 0 3.584 1.67999 3.584 4.47999v.196c0 2.772-1.316 4.452-3.584 4.452Zm-.028 3.08c4.396 0 7.728-2.94 7.728-7.56v-.224c0-4.56399-3.304-7.50399-7.7-7.50399-4.396 0-7.728 2.996-7.728 7.58799v.224c0 4.564 3.332 7.476 7.7 7.476Z"/></svg>